
<svg xmlns="http://www.w3.org/2000/svg" xmlns:xlink="http://www.w3.org/1999/xlink">
  <defs>
    <symbol id="globe" viewBox="0 0 512 512">
      <!--!Font Awesome Free 6.6.0 by @fontawesome - https://fontawesome.com License - https://fontawesome.com/license/free Copyright 2024 Fonticons, Inc.-->
      <path d="M57.7 193l9.4 16.4c8.3 14.5 21.9 25.2 38 29.8L163 255.7c17.2 4.9 29 20.6 29 38.5l0 39.9c0 11 6.2 21 16 25.9s16 14.9 16 25.9l0 39c0 15.6 14.9 26.9 29.9 22.6c16.1-4.6 28.6-17.5 32.7-33.8l2.8-11.2c4.2-16.9 15.2-31.4 30.3-40l8.1-4.6c15-8.5 24.2-24.5 24.2-41.7l0-8.3c0-12.7-5.1-24.9-14.1-33.9l-3.9-3.9c-9-9-21.2-14.1-33.9-14.1L257 256c-11.1 0-22.1-2.9-31.8-8.4l-34.5-19.7c-4.3-2.5-7.6-6.5-9.2-11.2c-3.2-9.6 1.1-20 10.2-24.5l5.9-3c6.6-3.3 14.3-3.9 21.3-1.5l23.2 7.7c8.2 2.7 17.2-.4 21.9-7.5c4.7-7 4.2-16.3-1.2-22.8l-13.6-16.3c-10-12-9.9-29.5 .3-41.3l15.7-18.3c8.8-10.3 10.2-25 3.5-36.7l-2.4-4.2c-3.5-.2-6.9-.3-10.4-.3C163.1 48 84.4 108.9 57.7 193zM464 256c0-36.8-9.6-71.4-26.4-101.5L412 164.8c-15.7 6.3-23.8 23.8-18.5 39.8l16.9 50.7c3.5 10.4 12 18.3 22.6 20.9l29.1 7.3c1.2-9 1.8-18.2 1.8-27.5zM0 256a256 256 0 1 1 512 0A256 256 0 1 1 0 256z"/>
    </symbol>
    <symbol id="email" viewBox="0 0 512 512">
      <!--!Font Awesome Free 6.6.0 by @fontawesome - https://fontawesome.com License - https://fontawesome.com/license/free Copyright 2024 Fonticons, Inc.-->
      <path d="M48 64C21.5 64 0 85.5 0 112c0 15.1 7.1 29.3 19.2 38.4L236.8 313.6c11.4 8.5 27 8.5 38.4 0L492.8 150.4c12.1-9.1 19.2-23.3 19.2-38.4c0-26.5-21.5-48-48-48L48 64zM0 176L0 384c0 35.3 28.7 64 64 64l384 0c35.3 0 64-28.7 64-64l0-208L294.4 339.2c-22.8 17.1-54 17.1-76.8 0L0 176z"/>
    </symbol>
    <symbol id="location" viewBox="0 0 384 512">
      <!--!Font Awesome Free 6.6.0 by @fontawesome - https://fontawesome.com License - https://fontawesome.com/license/free Copyright 2024 Fonticons, Inc.-->
      <path d="M215.7 499.2C267 435 384 279.4 384 192C384 86 298 0 192 0S0 86 0 192c0 87.4 117 243 168.3 307.2c12.3 15.3 35.1 15.3 47.4 0zM192 128a64 64 0 1 1 0 128 64 64 0 1 1 0-128z"/>
    </symbol>
    <symbol id="linkedin" viewBox="0 0 448 512">
      <!--!Font Awesome Free 6.6.0 by @fontawesome - https://fontawesome.com License - https://fontawesome.com/license/free Copyright 2024 Fonticons, Inc.-->
      <path d="M416 32H31.9C14.3 32 0 46.5 0 64.3v383.4C0 465.5 14.3 480 31.9 480H416c17.6 0 32-14.5 32-32.3V64.3c0-17.8-14.4-32.3-32-32.3zM135.4 416H69V202.2h66.5V416zm-33.2-243c-21.3 0-38.5-17.3-38.5-38.5S80.9 96 102.2 96c21.2 0 38.5 17.3 38.5 38.5 0 21.3-17.2 38.5-38.5 38.5zm282.1 243h-66.4V312c0-24.8-.5-56.7-34.5-56.7-34.6 0-39.9 27-39.9 54.9V416h-66.4V202.2h63.7v29.2h.9c8.9-16.8 30.6-34.5 62.9-34.5 67.2 0 79.7 44.3 79.7 101.9V416z"/>
    </symbol>
    <symbol id="github" viewBox="0 0 496 512">
      <!--!Font Awesome Free 6.6.0 by @fontawesome - https://fontawesome.com License - https://fontawesome.com/license/free Copyright 2024 Fonticons, Inc.-->
      <path d="M165.9 397.4c0 2-2.3 3.6-5.2 3.6-3.3 .3-5.6-1.3-5.6-3.6 0-2 2.3-3.6 5.2-3.6 3-.3 5.6 1.3 5.6 3.6zm-31.1-4.5c-.7 2 1.3 4.3 4.3 4.9 2.6 1 5.6 0 6.2-2s-1.3-4.3-4.3-5.2c-2.6-.7-5.5 .3-6.2 2.3zm44.2-1.7c-2.9 .7-4.9 2.6-4.6 4.9 .3 2 2.9 3.3 5.9 2.6 2.9-.7 4.9-2.6 4.6-4.6-.3-1.9-3-3.2-5.9-2.9zM244.8 8C106.1 8 0 113.3 0 252c0 110.9 69.8 205.8 169.5 239.2 12.8 2.3 17.3-5.6 17.3-12.1 0-6.2-.3-40.4-.3-61.4 0 0-70 15-84.7-29.8 0 0-11.4-29.1-27.8-36.6 0 0-22.9-15.7 1.6-15.4 0 0 24.9 2 38.6 25.8 21.9 38.6 58.6 27.5 72.9 20.9 2.3-16 8.8-27.1 16-33.7-55.9-6.2-112.3-14.3-112.3-110.5 0-27.5 7.6-41.3 23.6-58.9-2.6-6.5-11.1-33.3 2.6-67.9 20.9-6.5 69 27 69 27 20-5.6 41.5-8.5 62.8-8.5s42.8 2.9 62.8 8.5c0 0 48.1-33.6 69-27 13.7 34.7 5.2 61.4 2.6 67.9 16 17.7 25.8 31.5 25.8 58.9 0 96.5-58.9 104.2-114.8 110.5 9.2 7.9 17 22.9 17 46.4 0 33.7-.3 75.4-.3 83.6 0 6.5 4.6 14.4 17.3 12.1C428.2 457.8 496 362.9 496 252 496 113.3 383.5 8 244.8 8zM97.2 352.9c-1.3 1-1 3.3 .7 5.2 1.6 1.6 3.9 2.3 5.2 1 1.3-1 1-3.3-.7-5.2-1.6-1.6-3.9-2.3-5.2-1zm-10.8-8.1c-.7 1.3 .3 2.9 2.3 3.9 1.6 1 3.6 .7 4.3-.7 .7-1.3-.3-2.9-2.3-3.9-2-.6-3.6-.3-4.3 .7zm32.4 35.6c-1.6 1.3-1 4.3 1.3 6.2 2.3 2.3 5.2 2.6 6.5 1 1.3-1.3 .7-4.3-1.3-6.2-2.2-2.3-5.2-2.6-6.5-1zm-11.4-14.7c-1.6 1-1.6 3.6 0 5.9 1.6 2.3 4.3 3.3 5.6 2.3 1.6-1.3 1.6-3.9 0-6.2-1.4-2.3-4-3.3-5.6-2z"/>
    </symbol>

    <symbol id="react" viewBox="0 0 256 228">
      <path d="M210.483 73.824a171.49 171.49 0 0 0-8.24-2.597c.465-1.9.893-3.777 1.273-5.621c6.238-30.281 2.16-54.676-11.769-62.708c-13.355-7.7-35.196.329-57.254 19.526a171.23 171.23 0 0 0-6.375 5.848a155.866 155.866 0 0 0-4.241-3.917C100.759 3.829 77.587-4.822 63.673 3.233C50.33 10.957 46.379 33.89 51.995 62.588a170.974 170.974 0 0 0 1.892 8.48c-3.28.932-6.445 1.924-9.474 2.98C17.309 83.498 0 98.307 0 113.668c0 15.865 18.582 31.778 46.812 41.427a145.52 145.52 0 0 0 6.921 2.165a167.467 167.467 0 0 0-2.01 9.138c-5.354 28.2-1.173 50.591 12.134 58.266c13.744 7.926 36.812-.22 59.273-19.855a145.567 145.567 0 0 0 5.342-4.923a168.064 168.064 0 0 0 6.92 6.314c21.758 18.722 43.246 26.282 56.54 18.586c13.731-7.949 18.194-32.003 12.4-61.268a145.016 145.016 0 0 0-1.535-6.842c1.62-.48 3.21-.974 4.76-1.488c29.348-9.723 48.443-25.443 48.443-41.52c0-15.417-17.868-30.326-45.517-39.844Zm-6.365 70.984c-1.4.463-2.836.91-4.3 1.345c-3.24-10.257-7.612-21.163-12.963-32.432c5.106-11 9.31-21.767 12.459-31.957c2.619.758 5.16 1.557 7.61 2.4c23.69 8.156 38.14 20.213 38.14 29.504c0 9.896-15.606 22.743-40.946 31.14Zm-10.514 20.834c2.562 12.94 2.927 24.64 1.23 33.787c-1.524 8.219-4.59 13.698-8.382 15.893c-8.067 4.67-25.32-1.4-43.927-17.412a156.726 156.726 0 0 1-6.437-5.87c7.214-7.889 14.423-17.06 21.459-27.246c12.376-1.098 24.068-2.894 34.671-5.345a134.17 134.17 0 0 1 1.386 6.193ZM87.276 214.515c-7.882 2.783-14.16 2.863-17.955.675c-8.075-4.657-11.432-22.636-6.853-46.752a156.923 156.923 0 0 1 1.869-8.499c10.486 2.32 22.093 3.988 34.498 4.994c7.084 9.967 14.501 19.128 21.976 27.15a134.668 134.668 0 0 1-4.877 4.492c-9.933 8.682-19.886 14.842-28.658 17.94ZM50.35 144.747c-12.483-4.267-22.792-9.812-29.858-15.863c-6.35-5.437-9.555-10.836-9.555-15.216c0-9.322 13.897-21.212 37.076-29.293c2.813-.98 5.757-1.905 8.812-2.773c3.204 10.42 7.406 21.315 12.477 32.332c-5.137 11.18-9.399 22.249-12.634 32.792a134.718 134.718 0 0 1-6.318-1.979Zm12.378-84.26c-4.811-24.587-1.616-43.134 6.425-47.789c8.564-4.958 27.502 2.111 47.463 19.835a144.318 144.318 0 0 1 3.841 3.545c-7.438 7.987-14.787 17.08-21.808 26.988c-12.04 1.116-23.565 2.908-34.161 5.309a160.342 160.342 0 0 1-1.76-7.887Zm110.427 27.268a347.8 347.8 0 0 0-7.785-12.803c8.168 1.033 15.994 2.404 23.343 4.08c-2.206 7.072-4.956 14.465-8.193 22.045a381.151 381.151 0 0 0-7.365-13.322Zm-45.032-43.861c5.044 5.465 10.096 11.566 15.065 18.186a322.04 322.04 0 0 0-30.257-.006c4.974-6.559 10.069-12.652 15.192-18.18ZM82.802 87.83a323.167 323.167 0 0 0-7.227 13.238c-3.184-7.553-5.909-14.98-8.134-22.152c7.304-1.634 15.093-2.97 23.209-3.984a321.524 321.524 0 0 0-7.848 12.897Zm8.081 65.352c-8.385-.936-16.291-2.203-23.593-3.793c2.26-7.3 5.045-14.885 8.298-22.6a321.187 321.187 0 0 0 7.257 13.246c2.594 4.48 5.28 8.868 8.038 13.147Zm37.542 31.03c-5.184-5.592-10.354-11.779-15.403-18.433c4.902.192 9.899.29 14.978.29c5.218 0 10.376-.117 15.453-.343c-4.985 6.774-10.018 12.97-15.028 18.486Zm52.198-57.817c3.422 7.8 6.306 15.345 8.596 22.52c-7.422 1.694-15.436 3.058-23.88 4.071a382.417 382.417 0 0 0 7.859-13.026a347.403 347.403 0 0 0 7.425-13.565Zm-16.898 8.101a358.557 358.557 0 0 1-12.281 19.815a329.4 329.4 0 0 1-23.444.823c-7.967 0-15.716-.248-23.178-.732a310.202 310.202 0 0 1-12.513-19.846h.001a307.41 307.41 0 0 1-10.923-20.627a310.278 310.278 0 0 1 10.89-20.637l-.001.001a307.318 307.318 0 0 1 12.413-19.761c7.613-.576 15.42-.876 23.31-.876H128c7.926 0 15.743.303 23.354.883a329.357 329.357 0 0 1 12.335 19.695a358.489 358.489 0 0 1 11.036 20.54a329.472 329.472 0 0 1-11 20.722Zm22.56-122.124c8.572 4.944 11.906 24.881 6.52 51.026c-.344 1.668-.73 3.367-1.15 5.09c-10.622-2.452-22.155-4.275-34.23-5.408c-7.034-10.017-14.323-19.124-21.64-27.008a160.789 160.789 0 0 1 5.888-5.4c18.9-16.447 36.564-22.941 44.612-18.3ZM128 90.808c12.625 0 22.86 10.235 22.86 22.86s-10.235 22.86-22.86 22.86s-22.86-10.235-22.86-22.86s10.235-22.86 22.86-22.86Z"/>
    </symbol>
    <symbol id="blender" viewBox="0.499 48.118 511.002 415.763">
      <path d="M510.003 279.642c-2.998-21.097-10.305-41.104-21.725-59.459-9.959-16.019-22.738-30.266-37.991-42.375l.041-.038L290.133 54.731a4.569 4.569 0 0 0-.361-.287c-5.326-4.08-12.537-6.325-20.297-6.325-7.77 0-15.263 2.25-21.088 6.338-6.263 4.375-9.843 10.18-10.093 16.359-.229 5.765 2.521 11.312 7.764 15.636 10.31 8.135 20.597 16.447 30.898 24.769 9.997 8.08 20.298 16.401 30.549 24.502l-196.213-.133c-22.439 0-37.718 10.537-40.861 28.178-1.381 7.727 1.056 16.223 6.504 22.73 5.78 6.898 14.172 10.703 23.629 10.703l14.958.01c20.664 0 41.419-.051 62.146-.101l19.766-.046-178.08 131.748-.707.517C8.7 336.953 2.188 347.642.783 358.653c-1.065 8.342.881 15.965 5.63 22.053 5.66 7.258 14.497 11.25 24.885 11.25 10.205 0 20.618-3.867 29.334-10.908l96.166-78.7c-.411 3.843-.91 9.481-.853 13.573.108 6.479 2.188 19.479 5.481 30.033 6.804 21.69 18.265 41.535 34.063 58.963 16.438 18.132 36.458 32.509 59.5 42.722 24.36 10.774 50.547 16.243 77.836 16.243h.253c27.376-.066 53.646-5.622 78.085-16.519 23.08-10.334 43.091-24.769 59.467-42.898 15.778-17.517 27.223-37.395 34.014-59.067a151.124 151.124 0 0 0 6.416-33.003c.839-10.83.478-21.85-1.057-32.753zM334.82 383.601c-60.141 0-108.911-43.627-108.911-97.447 0-53.814 48.771-97.441 108.911-97.441 60.142 0 108.907 43.627 108.907 97.441.002 53.82-48.765 97.447-108.907 97.447zm62.807-106.01c.887 16.063-5.529 30.978-16.796 42.019-11.461 11.248-27.815 18.313-46.103 18.313-18.28 0-34.637-7.065-46.102-18.313-11.262-11.041-17.665-25.954-16.783-42.006.864-15.603 8.475-29.376 19.939-39.128 11.273-9.589 26.41-15.439 42.945-15.439 16.537 0 31.67 5.852 42.944 15.439 11.47 9.752 19.083 23.515 19.956 39.115z"/>
    </symbol>
    <svg id="python" viewBox="0 0 448 512">
      <!--!Font Awesome Free 6.6.0 by @fontawesome - https://fontawesome.com License - https://fontawesome.com/license/free Copyright 2024 Fonticons, Inc.-->
      <path d="M439.8 200.5c-7.7-30.9-22.3-54.2-53.4-54.2h-40.1v47.4c0 36.8-31.2 67.8-66.8 67.8H172.7c-29.2 0-53.4 25-53.4 54.3v101.8c0 29 25.2 46 53.4 54.3 33.8 9.9 66.3 11.7 106.8 0 26.9-7.8 53.4-23.5 53.4-54.3v-40.7H226.2v-13.6h160.2c31.1 0 42.6-21.7 53.4-54.2 11.2-33.5 10.7-65.7 0-108.6zM286.2 404c11.1 0 20.1 9.1 20.1 20.3 0 11.3-9 20.4-20.1 20.4-11 0-20.1-9.2-20.1-20.4 .1-11.3 9.1-20.3 20.1-20.3zM167.8 248.1h106.8c29.7 0 53.4-24.5 53.4-54.3V91.9c0-29-24.4-50.7-53.4-55.6-35.8-5.9-74.7-5.6-106.8 .1-45.2 8-53.4 24.7-53.4 55.6v40.7h106.9v13.6h-147c-31.1 0-58.3 18.7-66.8 54.2-9.8 40.7-10.2 66.1 0 108.6 7.6 31.6 25.7 54.2 56.8 54.2H101v-48.8c0-35.3 30.5-66.4 66.8-66.4zm-6.7-142.6c-11.1 0-20.1-9.1-20.1-20.3 .1-11.3 9-20.4 20.1-20.4 11 0 20.1 9.2 20.1 20.4s-9 20.3-20.1 20.3z"/>
    </svg>
    <svg id="unity" viewBox="0 0 448 512">
      <!--!Font Awesome Free 6.6.0 by @fontawesome - https://fontawesome.com License - https://fontawesome.com/license/free Copyright 2024 Fonticons, Inc.-->
      <path d="M243.6 91.6L323.7 138.4C326.6 140 326.7 144.6 323.7 146.2L228.5 201.9C225.6 203.6 222.2 203.4 219.5 201.9L124.4 146.2C121.4 144.6 121.4 140 124.4 138.4L204.4 91.6V0L0 119.4V358.3L78.4 312.5V218.9C78.3 215.6 82.2 213.2 85.1 215L180.3 270.6C183.2 272.3 184.8 275.3 184.8 278.5V389.7C184.8 393 181 395.4 178.1 393.6L98 346.8L19.6 392.6L224 512L428.4 392.6L350 346.8L269.9 393.6C267.1 395.3 263.1 393.1 263.2 389.7V278.5C263.2 275.1 265.1 272.2 267.7 270.6L362.9 215C365.7 213.2 369.7 215.5 369.6 218.9V312.5L448 358.3V119.4L243.6 0V91.6z"/>
    </svg>
    <svg id="laravel" viewBox="0 0 512 512">
      <!--!Font Awesome Free 6.6.0 by @fontawesome - https://fontawesome.com License - https://fontawesome.com/license/free Copyright 2024 Fonticons, Inc.-->
      <path d="M504.4 115.8a5.7 5.7 0 0 0 -.3-.7 8.5 8.5 0 0 0 -.5-1.3 6 6 0 0 0 -.5-.7 9.4 9.4 0 0 0 -.7-.9c-.2-.2-.5-.4-.8-.6a8.8 8.8 0 0 0 -.9-.7L404.4 55.6a8 8 0 0 0 -8 0L300.1 111h0a8.1 8.1 0 0 0 -.9 .7 7.7 7.7 0 0 0 -.8 .6 8.2 8.2 0 0 0 -.7 .9c-.2 .2-.4 .5-.5 .7a9.7 9.7 0 0 0 -.5 1.3c-.1 .2-.2 .4-.3 .7a8.1 8.1 0 0 0 -.3 2.1V223.2l-80.2 46.2V63.4a7.8 7.8 0 0 0 -.3-2.1c-.1-.2-.2-.5-.3-.7a8.4 8.4 0 0 0 -.5-1.2c-.1-.3-.4-.5-.5-.7a9.4 9.4 0 0 0 -.7-.9 9.5 9.5 0 0 0 -.8-.6 9.8 9.8 0 0 0 -.9-.7h0L115.6 1.1a8 8 0 0 0 -8 0L11.3 56.5h0a6.5 6.5 0 0 0 -.9 .7 7.8 7.8 0 0 0 -.8 .6 8.2 8.2 0 0 0 -.7 .9c-.2 .3-.4 .5-.6 .7a7.9 7.9 0 0 0 -.5 1.2 6.5 6.5 0 0 0 -.3 .7 8.2 8.2 0 0 0 -.3 2.1v329.7a8 8 0 0 0 4 7l192.5 110.8a8.8 8.8 0 0 0 1.3 .5c.2 .1 .4 .2 .6 .3a7.9 7.9 0 0 0 4.1 0c.2-.1 .4-.2 .6-.2a8.6 8.6 0 0 0 1.4-.6L404.4 400.1a8 8 0 0 0 4-7V287.9l92.2-53.1a8 8 0 0 0 4-7V117.9A8.6 8.6 0 0 0 504.4 115.8zM111.6 17.3h0l80.2 46.2-80.2 46.2L31.4 63.4zm88.3 60V278.6l-46.5 26.8-33.7 19.4V123.5l46.5-26.8zm0 412.8L23.4 388.5V77.3L57.1 96.7l46.5 26.8V338.7a6.9 6.9 0 0 0 .1 .9 8 8 0 0 0 .2 1.2h0a5.9 5.9 0 0 0 .4 .9 6.4 6.4 0 0 0 .4 1v0a8.5 8.5 0 0 0 .6 .8 7.6 7.6 0 0 0 .7 .8l0 0c.2 .2 .5 .4 .8 .6a8.9 8.9 0 0 0 .9 .7l0 0 0 0 92.2 52.2zm8-106.2-80.1-45.3 84.1-48.4 92.3-53.1 80.1 46.1-58.8 33.6zm184.5 4.6L215.9 490.1V397.8L346.6 323.2l45.8-26.2zm0-119.1L358.7 250l-46.5-26.8V131.8l33.7 19.4L392.4 178zm8-105.3-80.2-46.2 80.2-46.2 80.2 46.2zm8 105.3V178L455 151.2l33.7-19.4v91.4h0z"/>
    </svg>
  </defs>
</svg>